<mxfile host="app.diagrams.net" modified="2023-09-20T01:38:51.673Z" agent="Mozilla/5.0 (X11; Linux x86_64; rv:109.0) Gecko/20100101 Firefox/117.0" etag="2D8BP4UPcz7nh9YkhZm2" version="21.7.5" type="github" pages="2">
  <diagram name="Page-1" id="A41Sm2gP48WwYxCH8jK3">
    <mxGraphModel dx="724" dy="467" grid="1" gridSize="10" guides="1" tooltips="1" connect="1" arrows="1" fold="1" page="1" pageScale="1" pageWidth="827" pageHeight="1169" math="0" shadow="0">
      <root>
        <mxCell id="0" />
        <mxCell id="1" parent="0" />
        <mxCell id="9rebO3kFmRryqbS-nXFS-4" style="edgeStyle=orthogonalEdgeStyle;rounded=0;orthogonalLoop=1;jettySize=auto;html=1;" parent="1" target="9rebO3kFmRryqbS-nXFS-3" edge="1">
          <mxGeometry relative="1" as="geometry">
            <mxPoint x="872" y="150" as="sourcePoint" />
          </mxGeometry>
        </mxCell>
        <mxCell id="9rebO3kFmRryqbS-nXFS-2" value="" style="verticalLabelPosition=bottom;verticalAlign=top;html=1;shape=hexagon;perimeter=hexagonPerimeter2;arcSize=6;size=0.27;" parent="1" vertex="1">
          <mxGeometry x="822" y="180" width="100" height="60" as="geometry" />
        </mxCell>
        <mxCell id="9rebO3kFmRryqbS-nXFS-11" style="edgeStyle=orthogonalEdgeStyle;rounded=0;orthogonalLoop=1;jettySize=auto;html=1;entryX=0.5;entryY=0;entryDx=0;entryDy=0;" parent="1" source="9rebO3kFmRryqbS-nXFS-3" target="9rebO3kFmRryqbS-nXFS-5" edge="1">
          <mxGeometry relative="1" as="geometry" />
        </mxCell>
        <mxCell id="9rebO3kFmRryqbS-nXFS-3" value="&lt;div style=&quot;font-size: 10px;&quot;&gt;&lt;font style=&quot;font-size: 10px;&quot;&gt;temp = 0&lt;/font&gt;&lt;/div&gt;&lt;div style=&quot;font-size: 10px;&quot;&gt;&lt;font style=&quot;font-size: 10px;&quot;&gt;a = 0&lt;/font&gt;&lt;/div&gt;&lt;div style=&quot;font-size: 10px;&quot;&gt;&lt;font style=&quot;font-size: 10px;&quot;&gt;b = 0&lt;/font&gt;&lt;/div&gt;&lt;div style=&quot;font-size: 10px;&quot;&gt;&lt;font style=&quot;font-size: 10px;&quot;&gt;n = 0&lt;font style=&quot;font-size: 10px;&quot;&gt;&lt;br&gt;&lt;/font&gt;&lt;/font&gt;&lt;/div&gt;" style="text;html=1;align=center;verticalAlign=middle;resizable=0;points=[];autosize=1;strokeColor=none;fillColor=none;" parent="1" vertex="1">
          <mxGeometry x="842" y="180" width="60" height="60" as="geometry" />
        </mxCell>
        <mxCell id="9rebO3kFmRryqbS-nXFS-48" style="edgeStyle=orthogonalEdgeStyle;rounded=0;orthogonalLoop=1;jettySize=auto;html=1;entryX=0.5;entryY=0;entryDx=0;entryDy=0;entryPerimeter=0;" parent="1" source="9rebO3kFmRryqbS-nXFS-5" target="9rebO3kFmRryqbS-nXFS-47" edge="1">
          <mxGeometry relative="1" as="geometry" />
        </mxCell>
        <mxCell id="9rebO3kFmRryqbS-nXFS-5" value="input(a, b, n)" style="shape=parallelogram;perimeter=parallelogramPerimeter;whiteSpace=wrap;html=1;fixedSize=1;" parent="1" vertex="1">
          <mxGeometry x="812" y="280" width="120" height="60" as="geometry" />
        </mxCell>
        <mxCell id="9rebO3kFmRryqbS-nXFS-52" style="edgeStyle=orthogonalEdgeStyle;rounded=0;orthogonalLoop=1;jettySize=auto;html=1;entryX=0.5;entryY=0;entryDx=0;entryDy=0;" parent="1" source="9rebO3kFmRryqbS-nXFS-47" target="9rebO3kFmRryqbS-nXFS-49" edge="1">
          <mxGeometry relative="1" as="geometry" />
        </mxCell>
        <mxCell id="9rebO3kFmRryqbS-nXFS-57" value="Yes" style="edgeLabel;html=1;align=center;verticalAlign=middle;resizable=0;points=[];" parent="9rebO3kFmRryqbS-nXFS-52" vertex="1" connectable="0">
          <mxGeometry x="-0.0643" relative="1" as="geometry">
            <mxPoint x="18" as="offset" />
          </mxGeometry>
        </mxCell>
        <mxCell id="9rebO3kFmRryqbS-nXFS-130" style="edgeStyle=orthogonalEdgeStyle;rounded=0;orthogonalLoop=1;jettySize=auto;html=1;entryX=1;entryY=0.5;entryDx=0;entryDy=0;" parent="1" source="9rebO3kFmRryqbS-nXFS-47" target="9rebO3kFmRryqbS-nXFS-134" edge="1">
          <mxGeometry relative="1" as="geometry">
            <mxPoint x="1090" y="890" as="targetPoint" />
            <Array as="points">
              <mxPoint x="1090" y="430" />
              <mxPoint x="1090" y="880" />
            </Array>
          </mxGeometry>
        </mxCell>
        <mxCell id="9rebO3kFmRryqbS-nXFS-131" value="No" style="edgeLabel;html=1;align=center;verticalAlign=middle;resizable=0;points=[];" parent="9rebO3kFmRryqbS-nXFS-130" vertex="1" connectable="0">
          <mxGeometry x="-0.8089" relative="1" as="geometry">
            <mxPoint x="-8" y="-10" as="offset" />
          </mxGeometry>
        </mxCell>
        <mxCell id="9rebO3kFmRryqbS-nXFS-47" value="a &amp;gt; b" style="strokeWidth=2;html=1;shape=mxgraph.flowchart.decision;whiteSpace=wrap;" parent="1" vertex="1">
          <mxGeometry x="822" y="380" width="100" height="100" as="geometry" />
        </mxCell>
        <mxCell id="9rebO3kFmRryqbS-nXFS-54" style="edgeStyle=orthogonalEdgeStyle;rounded=0;orthogonalLoop=1;jettySize=auto;html=1;entryX=0.5;entryY=0;entryDx=0;entryDy=0;" parent="1" source="9rebO3kFmRryqbS-nXFS-49" target="9rebO3kFmRryqbS-nXFS-50" edge="1">
          <mxGeometry relative="1" as="geometry" />
        </mxCell>
        <mxCell id="9rebO3kFmRryqbS-nXFS-49" value="a = a - b" style="rounded=0;whiteSpace=wrap;html=1;" parent="1" vertex="1">
          <mxGeometry x="812" y="550" width="120" height="60" as="geometry" />
        </mxCell>
        <mxCell id="9rebO3kFmRryqbS-nXFS-55" style="edgeStyle=orthogonalEdgeStyle;rounded=0;orthogonalLoop=1;jettySize=auto;html=1;entryX=0.5;entryY=0;entryDx=0;entryDy=0;" parent="1" source="9rebO3kFmRryqbS-nXFS-50" target="9rebO3kFmRryqbS-nXFS-51" edge="1">
          <mxGeometry relative="1" as="geometry" />
        </mxCell>
        <mxCell id="9rebO3kFmRryqbS-nXFS-50" value="b = a + b" style="rounded=0;whiteSpace=wrap;html=1;" parent="1" vertex="1">
          <mxGeometry x="812" y="645" width="120" height="60" as="geometry" />
        </mxCell>
        <mxCell id="9rebO3kFmRryqbS-nXFS-129" style="edgeStyle=orthogonalEdgeStyle;rounded=0;orthogonalLoop=1;jettySize=auto;html=1;entryX=0.5;entryY=0;entryDx=0;entryDy=0;" parent="1" source="9rebO3kFmRryqbS-nXFS-51" target="9rebO3kFmRryqbS-nXFS-134" edge="1">
          <mxGeometry relative="1" as="geometry">
            <mxPoint x="872" y="860" as="targetPoint" />
          </mxGeometry>
        </mxCell>
        <mxCell id="9rebO3kFmRryqbS-nXFS-51" value="a = b - a" style="rounded=0;whiteSpace=wrap;html=1;" parent="1" vertex="1">
          <mxGeometry x="812" y="750" width="120" height="60" as="geometry" />
        </mxCell>
        <mxCell id="9rebO3kFmRryqbS-nXFS-95" style="edgeStyle=orthogonalEdgeStyle;rounded=0;orthogonalLoop=1;jettySize=auto;html=1;entryX=0.5;entryY=0;entryDx=0;entryDy=0;fontFamily=Courier New;fontSize=10;" parent="1" source="9rebO3kFmRryqbS-nXFS-99" target="9rebO3kFmRryqbS-nXFS-103" edge="1">
          <mxGeometry relative="1" as="geometry" />
        </mxCell>
        <mxCell id="9rebO3kFmRryqbS-nXFS-96" value="&lt;font style=&quot;font-size: 10px;&quot; face=&quot;Courier New&quot;&gt;Yes&lt;/font&gt;" style="edgeLabel;html=1;align=center;verticalAlign=middle;resizable=0;points=[];" parent="9rebO3kFmRryqbS-nXFS-95" vertex="1" connectable="0">
          <mxGeometry x="-0.3698" relative="1" as="geometry">
            <mxPoint x="-10" y="-10" as="offset" />
          </mxGeometry>
        </mxCell>
        <mxCell id="9rebO3kFmRryqbS-nXFS-97" style="edgeStyle=orthogonalEdgeStyle;rounded=0;orthogonalLoop=1;jettySize=auto;html=1;entryX=0.5;entryY=0;entryDx=0;entryDy=0;fontFamily=Courier New;fontSize=10;" parent="1" source="9rebO3kFmRryqbS-nXFS-99" target="9rebO3kFmRryqbS-nXFS-124" edge="1">
          <mxGeometry relative="1" as="geometry">
            <mxPoint x="1082" y="1040" as="targetPoint" />
          </mxGeometry>
        </mxCell>
        <mxCell id="9rebO3kFmRryqbS-nXFS-98" value="&lt;font style=&quot;font-size: 10px;&quot; face=&quot;Courier New&quot;&gt;No&lt;/font&gt;" style="edgeLabel;html=1;align=center;verticalAlign=middle;resizable=0;points=[];" parent="9rebO3kFmRryqbS-nXFS-97" vertex="1" connectable="0">
          <mxGeometry x="-0.3358" y="-1" relative="1" as="geometry">
            <mxPoint y="-11" as="offset" />
          </mxGeometry>
        </mxCell>
        <mxCell id="9rebO3kFmRryqbS-nXFS-99" value="temp &amp;lt; 0" style="rhombus;whiteSpace=wrap;html=1;shadow=0;fontFamily=Courier New;fontSize=10;align=center;strokeWidth=1;spacing=6;spacingTop=-4;" parent="1" vertex="1">
          <mxGeometry x="822" y="950" width="100" height="80" as="geometry" />
        </mxCell>
        <mxCell id="9rebO3kFmRryqbS-nXFS-100" value="Yes" style="edgeStyle=orthogonalEdgeStyle;html=1;jettySize=auto;orthogonalLoop=1;fontSize=10;endArrow=classic;endFill=1;endSize=8;strokeWidth=1;shadow=0;labelBackgroundColor=none;fontFamily=Courier New;labelBorderColor=none;rounded=0;entryX=0.5;entryY=0;entryDx=0;entryDy=0;" parent="1" source="9rebO3kFmRryqbS-nXFS-103" target="9rebO3kFmRryqbS-nXFS-110" edge="1">
          <mxGeometry x="-0.2343" y="10" relative="1" as="geometry">
            <mxPoint as="offset" />
            <mxPoint x="782" y="1100" as="targetPoint" />
          </mxGeometry>
        </mxCell>
        <mxCell id="9rebO3kFmRryqbS-nXFS-101" style="edgeStyle=orthogonalEdgeStyle;rounded=0;orthogonalLoop=1;jettySize=auto;html=1;entryX=1;entryY=0.5;entryDx=0;entryDy=0;fontFamily=Courier New;fontSize=10;" parent="1" source="9rebO3kFmRryqbS-nXFS-103" target="9rebO3kFmRryqbS-nXFS-105" edge="1">
          <mxGeometry relative="1" as="geometry" />
        </mxCell>
        <mxCell id="9rebO3kFmRryqbS-nXFS-102" value="&lt;div style=&quot;font-size: 10px;&quot;&gt;No&lt;/div&gt;" style="edgeLabel;html=1;align=center;verticalAlign=middle;resizable=0;points=[];fontSize=10;fontFamily=Courier New;" parent="9rebO3kFmRryqbS-nXFS-101" vertex="1" connectable="0">
          <mxGeometry x="-0.28" relative="1" as="geometry">
            <mxPoint y="-10" as="offset" />
          </mxGeometry>
        </mxCell>
        <mxCell id="9rebO3kFmRryqbS-nXFS-103" value="temp &amp;gt; -2" style="rhombus;whiteSpace=wrap;html=1;shadow=0;fontFamily=Courier New;fontSize=10;align=center;strokeWidth=1;spacing=6;spacingTop=-4;" parent="1" vertex="1">
          <mxGeometry x="612" y="1060" width="100" height="80" as="geometry" />
        </mxCell>
        <mxCell id="9rebO3kFmRryqbS-nXFS-104" style="edgeStyle=orthogonalEdgeStyle;rounded=0;orthogonalLoop=1;jettySize=auto;html=1;entryX=0.5;entryY=1;entryDx=0;entryDy=0;fontFamily=Courier New;fontSize=10;" parent="1" source="9rebO3kFmRryqbS-nXFS-105" target="9rebO3kFmRryqbS-nXFS-103" edge="1">
          <mxGeometry relative="1" as="geometry">
            <mxPoint x="501.9999999999999" y="1280" as="targetPoint" />
            <Array as="points">
              <mxPoint x="502" y="1200" />
              <mxPoint x="662" y="1200" />
            </Array>
          </mxGeometry>
        </mxCell>
        <mxCell id="9rebO3kFmRryqbS-nXFS-105" value="temp = temp + 2" style="rounded=1;whiteSpace=wrap;html=1;fontSize=10;glass=0;strokeWidth=1;shadow=0;fontFamily=Courier New;arcSize=0;" parent="1" vertex="1">
          <mxGeometry x="439" y="1080" width="123" height="40" as="geometry" />
        </mxCell>
        <mxCell id="9rebO3kFmRryqbS-nXFS-108" style="edgeStyle=orthogonalEdgeStyle;rounded=0;orthogonalLoop=1;jettySize=auto;html=1;entryX=0.5;entryY=0;entryDx=0;entryDy=0;fontFamily=Courier New;fontSize=10;" parent="1" source="9rebO3kFmRryqbS-nXFS-110" target="9rebO3kFmRryqbS-nXFS-139" edge="1">
          <mxGeometry relative="1" as="geometry">
            <mxPoint x="995.5" y="1260" as="targetPoint" />
          </mxGeometry>
        </mxCell>
        <mxCell id="9rebO3kFmRryqbS-nXFS-109" value="&lt;font style=&quot;font-size: 10px;&quot;&gt;Yes&lt;/font&gt;" style="edgeLabel;html=1;align=center;verticalAlign=middle;resizable=0;points=[];fontFamily=Courier New;fontSize=10;" parent="9rebO3kFmRryqbS-nXFS-108" vertex="1" connectable="0">
          <mxGeometry x="0.0336" y="-1" relative="1" as="geometry">
            <mxPoint x="-35" y="-21" as="offset" />
          </mxGeometry>
        </mxCell>
        <mxCell id="9rebO3kFmRryqbS-nXFS-110" value="temp = 0" style="rhombus;whiteSpace=wrap;html=1;shadow=0;fontFamily=Courier New;fontSize=10;align=center;strokeWidth=1;spacing=6;spacingTop=-4;" parent="1" vertex="1">
          <mxGeometry x="822" y="1130" width="100" height="80" as="geometry" />
        </mxCell>
        <mxCell id="9rebO3kFmRryqbS-nXFS-118" style="edgeStyle=orthogonalEdgeStyle;rounded=0;orthogonalLoop=1;jettySize=auto;html=1;entryX=0.5;entryY=0;entryDx=0;entryDy=0;exitX=0;exitY=0.5;exitDx=0;exitDy=0;fontFamily=Courier New;fontSize=10;" parent="1" source="9rebO3kFmRryqbS-nXFS-110" target="9rebO3kFmRryqbS-nXFS-138" edge="1">
          <mxGeometry relative="1" as="geometry">
            <mxPoint x="669" y="1170" as="sourcePoint" />
            <mxPoint x="744.04" y="1260.2799999999997" as="targetPoint" />
          </mxGeometry>
        </mxCell>
        <mxCell id="9rebO3kFmRryqbS-nXFS-119" value="No" style="edgeLabel;html=1;align=center;verticalAlign=middle;resizable=0;points=[];fontFamily=Courier New;fontSize=10;" parent="9rebO3kFmRryqbS-nXFS-118" vertex="1" connectable="0">
          <mxGeometry x="0.0336" y="-1" relative="1" as="geometry">
            <mxPoint x="46" y="-21" as="offset" />
          </mxGeometry>
        </mxCell>
        <mxCell id="9rebO3kFmRryqbS-nXFS-120" style="edgeStyle=orthogonalEdgeStyle;rounded=0;orthogonalLoop=1;jettySize=auto;html=1;entryX=0.5;entryY=0;entryDx=0;entryDy=0;" parent="1" source="9rebO3kFmRryqbS-nXFS-124" target="9rebO3kFmRryqbS-nXFS-110" edge="1">
          <mxGeometry relative="1" as="geometry" />
        </mxCell>
        <mxCell id="9rebO3kFmRryqbS-nXFS-121" value="&lt;font face=&quot;Courier New&quot; style=&quot;font-size: 10px;&quot;&gt;Yes&lt;/font&gt;" style="edgeLabel;html=1;align=center;verticalAlign=middle;resizable=0;points=[];" parent="9rebO3kFmRryqbS-nXFS-120" vertex="1" connectable="0">
          <mxGeometry x="-0.4892" y="1" relative="1" as="geometry">
            <mxPoint x="-17" y="-11" as="offset" />
          </mxGeometry>
        </mxCell>
        <mxCell id="9rebO3kFmRryqbS-nXFS-122" style="edgeStyle=orthogonalEdgeStyle;rounded=0;orthogonalLoop=1;jettySize=auto;html=1;entryX=0;entryY=0.5;entryDx=0;entryDy=0;" parent="1" source="9rebO3kFmRryqbS-nXFS-124" target="9rebO3kFmRryqbS-nXFS-128" edge="1">
          <mxGeometry relative="1" as="geometry" />
        </mxCell>
        <mxCell id="9rebO3kFmRryqbS-nXFS-123" value="&lt;font style=&quot;font-size: 10px;&quot; face=&quot;Courier New&quot;&gt;No&lt;/font&gt;" style="edgeLabel;html=1;align=center;verticalAlign=middle;resizable=0;points=[];" parent="9rebO3kFmRryqbS-nXFS-122" vertex="1" connectable="0">
          <mxGeometry x="-0.26" y="-1" relative="1" as="geometry">
            <mxPoint y="-11" as="offset" />
          </mxGeometry>
        </mxCell>
        <mxCell id="9rebO3kFmRryqbS-nXFS-124" value="temp &amp;lt; 2" style="rhombus;whiteSpace=wrap;html=1;shadow=0;fontFamily=Courier New;fontSize=10;align=center;strokeWidth=1;spacing=6;spacingTop=-4;" parent="1" vertex="1">
          <mxGeometry x="1009" y="1060" width="100" height="80" as="geometry" />
        </mxCell>
        <mxCell id="9rebO3kFmRryqbS-nXFS-127" style="edgeStyle=orthogonalEdgeStyle;rounded=0;orthogonalLoop=1;jettySize=auto;html=1;entryX=0.5;entryY=1;entryDx=0;entryDy=0;" parent="1" source="9rebO3kFmRryqbS-nXFS-128" target="9rebO3kFmRryqbS-nXFS-124" edge="1">
          <mxGeometry relative="1" as="geometry">
            <Array as="points">
              <mxPoint x="1209" y="1200" />
              <mxPoint x="1059" y="1200" />
            </Array>
          </mxGeometry>
        </mxCell>
        <mxCell id="9rebO3kFmRryqbS-nXFS-128" value="temp = temp - 2" style="rounded=1;whiteSpace=wrap;html=1;fontSize=10;glass=0;strokeWidth=1;shadow=0;fontFamily=Courier New;arcSize=0;" parent="1" vertex="1">
          <mxGeometry x="1149" y="1080" width="130" height="40" as="geometry" />
        </mxCell>
        <mxCell id="9rebO3kFmRryqbS-nXFS-135" value="" style="edgeStyle=orthogonalEdgeStyle;rounded=0;orthogonalLoop=1;jettySize=auto;html=1;" parent="1" source="9rebO3kFmRryqbS-nXFS-134" target="9rebO3kFmRryqbS-nXFS-99" edge="1">
          <mxGeometry relative="1" as="geometry" />
        </mxCell>
        <mxCell id="9rebO3kFmRryqbS-nXFS-134" value="temp = a" style="rounded=0;whiteSpace=wrap;html=1;" parent="1" vertex="1">
          <mxGeometry x="812" y="850" width="120" height="60" as="geometry" />
        </mxCell>
        <mxCell id="9rebO3kFmRryqbS-nXFS-141" style="edgeStyle=orthogonalEdgeStyle;rounded=0;orthogonalLoop=1;jettySize=auto;html=1;entryX=0.5;entryY=0;entryDx=0;entryDy=0;" parent="1" source="9rebO3kFmRryqbS-nXFS-138" target="9rebO3kFmRryqbS-nXFS-144" edge="1">
          <mxGeometry relative="1" as="geometry">
            <Array as="points">
              <mxPoint x="750" y="1390" />
              <mxPoint x="872" y="1390" />
            </Array>
            <mxPoint x="812" y="1389.9999999999998" as="targetPoint" />
          </mxGeometry>
        </mxCell>
        <mxCell id="9rebO3kFmRryqbS-nXFS-138" value="a = a + 2" style="rounded=0;whiteSpace=wrap;html=1;" parent="1" vertex="1">
          <mxGeometry x="690" y="1260" width="120" height="60" as="geometry" />
        </mxCell>
        <mxCell id="9rebO3kFmRryqbS-nXFS-142" style="edgeStyle=orthogonalEdgeStyle;rounded=0;orthogonalLoop=1;jettySize=auto;html=1;entryX=0.5;entryY=0;entryDx=0;entryDy=0;" parent="1" source="9rebO3kFmRryqbS-nXFS-139" target="9rebO3kFmRryqbS-nXFS-144" edge="1">
          <mxGeometry relative="1" as="geometry">
            <mxPoint x="931.9999999999998" y="1389.9999999999998" as="targetPoint" />
            <Array as="points">
              <mxPoint x="992" y="1390" />
              <mxPoint x="872" y="1390" />
            </Array>
          </mxGeometry>
        </mxCell>
        <mxCell id="9rebO3kFmRryqbS-nXFS-139" value="a = a + 1" style="rounded=0;whiteSpace=wrap;html=1;" parent="1" vertex="1">
          <mxGeometry x="932" y="1260" width="120" height="60" as="geometry" />
        </mxCell>
        <mxCell id="9rebO3kFmRryqbS-nXFS-152" value="" style="edgeStyle=orthogonalEdgeStyle;rounded=0;orthogonalLoop=1;jettySize=auto;html=1;entryX=0.5;entryY=0;entryDx=0;entryDy=0;" parent="1" source="9rebO3kFmRryqbS-nXFS-144" target="9rebO3kFmRryqbS-nXFS-160" edge="1">
          <mxGeometry relative="1" as="geometry" />
        </mxCell>
        <mxCell id="9rebO3kFmRryqbS-nXFS-153" value="Yes" style="edgeLabel;html=1;align=center;verticalAlign=middle;resizable=0;points=[];" parent="9rebO3kFmRryqbS-nXFS-152" vertex="1" connectable="0">
          <mxGeometry x="0.0269" y="2" relative="1" as="geometry">
            <mxPoint x="16" y="-2" as="offset" />
          </mxGeometry>
        </mxCell>
        <mxCell id="9rebO3kFmRryqbS-nXFS-156" style="edgeStyle=orthogonalEdgeStyle;rounded=0;orthogonalLoop=1;jettySize=auto;html=1;entryX=0.5;entryY=0;entryDx=0;entryDy=0;entryPerimeter=0;" parent="1" source="9rebO3kFmRryqbS-nXFS-144" target="9rebO3kFmRryqbS-nXFS-155" edge="1">
          <mxGeometry relative="1" as="geometry">
            <Array as="points">
              <mxPoint x="680" y="1480" />
            </Array>
          </mxGeometry>
        </mxCell>
        <mxCell id="9rebO3kFmRryqbS-nXFS-158" value="No" style="edgeLabel;html=1;align=center;verticalAlign=middle;resizable=0;points=[];" parent="9rebO3kFmRryqbS-nXFS-156" vertex="1" connectable="0">
          <mxGeometry x="-0.0753" y="-1" relative="1" as="geometry">
            <mxPoint x="13" y="-9" as="offset" />
          </mxGeometry>
        </mxCell>
        <mxCell id="9rebO3kFmRryqbS-nXFS-144" value="a &amp;lt; b" style="rhombus;whiteSpace=wrap;html=1;" parent="1" vertex="1">
          <mxGeometry x="830" y="1440" width="84" height="80" as="geometry" />
        </mxCell>
        <mxCell id="9rebO3kFmRryqbS-nXFS-150" style="edgeStyle=orthogonalEdgeStyle;rounded=0;orthogonalLoop=1;jettySize=auto;html=1;" parent="1" source="9rebO3kFmRryqbS-nXFS-147" target="9rebO3kFmRryqbS-nXFS-149" edge="1">
          <mxGeometry relative="1" as="geometry" />
        </mxCell>
        <mxCell id="9rebO3kFmRryqbS-nXFS-147" value="cetak(a)" style="shape=parallelogram;perimeter=parallelogramPerimeter;whiteSpace=wrap;html=1;fixedSize=1;" parent="1" vertex="1">
          <mxGeometry x="812" y="1700" width="120" height="60" as="geometry" />
        </mxCell>
        <mxCell id="9rebO3kFmRryqbS-nXFS-151" style="edgeStyle=orthogonalEdgeStyle;rounded=0;orthogonalLoop=1;jettySize=auto;html=1;entryX=1;entryY=0.5;entryDx=0;entryDy=0;exitX=1;exitY=0.5;exitDx=0;exitDy=0;" parent="1" source="m4Abpg3jTj8B2hDXwQZv-1" target="9rebO3kFmRryqbS-nXFS-144" edge="1">
          <mxGeometry relative="1" as="geometry">
            <Array as="points">
              <mxPoint x="990" y="1930" />
              <mxPoint x="990" y="1480" />
            </Array>
          </mxGeometry>
        </mxCell>
        <mxCell id="m4Abpg3jTj8B2hDXwQZv-2" style="edgeStyle=orthogonalEdgeStyle;rounded=0;orthogonalLoop=1;jettySize=auto;html=1;entryX=0.5;entryY=0;entryDx=0;entryDy=0;" parent="1" source="9rebO3kFmRryqbS-nXFS-149" target="m4Abpg3jTj8B2hDXwQZv-1" edge="1">
          <mxGeometry relative="1" as="geometry" />
        </mxCell>
        <mxCell id="9rebO3kFmRryqbS-nXFS-149" value="n = n - 1" style="rounded=0;whiteSpace=wrap;html=1;" parent="1" vertex="1">
          <mxGeometry x="812" y="1800" width="120" height="60" as="geometry" />
        </mxCell>
        <mxCell id="9rebO3kFmRryqbS-nXFS-155" value="End" style="strokeWidth=2;html=1;shape=mxgraph.flowchart.terminator;whiteSpace=wrap;" parent="1" vertex="1">
          <mxGeometry x="630" y="1510" width="100" height="60" as="geometry" />
        </mxCell>
        <mxCell id="9rebO3kFmRryqbS-nXFS-157" value="Begin" style="strokeWidth=2;html=1;shape=mxgraph.flowchart.terminator;whiteSpace=wrap;" parent="1" vertex="1">
          <mxGeometry x="822" y="90" width="100" height="60" as="geometry" />
        </mxCell>
        <mxCell id="9rebO3kFmRryqbS-nXFS-161" style="edgeStyle=orthogonalEdgeStyle;rounded=0;orthogonalLoop=1;jettySize=auto;html=1;entryX=0.5;entryY=0;entryDx=0;entryDy=0;" parent="1" source="9rebO3kFmRryqbS-nXFS-160" target="9rebO3kFmRryqbS-nXFS-147" edge="1">
          <mxGeometry relative="1" as="geometry" />
        </mxCell>
        <mxCell id="9rebO3kFmRryqbS-nXFS-162" value="Yes" style="edgeLabel;html=1;align=center;verticalAlign=middle;resizable=0;points=[];" parent="9rebO3kFmRryqbS-nXFS-161" vertex="1" connectable="0">
          <mxGeometry x="-0.0114" y="1" relative="1" as="geometry">
            <mxPoint x="17" y="-3" as="offset" />
          </mxGeometry>
        </mxCell>
        <mxCell id="9rebO3kFmRryqbS-nXFS-163" style="edgeStyle=orthogonalEdgeStyle;rounded=0;orthogonalLoop=1;jettySize=auto;html=1;entryX=0.5;entryY=1;entryDx=0;entryDy=0;entryPerimeter=0;" parent="1" source="9rebO3kFmRryqbS-nXFS-160" target="9rebO3kFmRryqbS-nXFS-155" edge="1">
          <mxGeometry relative="1" as="geometry" />
        </mxCell>
        <mxCell id="9rebO3kFmRryqbS-nXFS-164" value="No" style="edgeLabel;html=1;align=center;verticalAlign=middle;resizable=0;points=[];" parent="9rebO3kFmRryqbS-nXFS-163" vertex="1" connectable="0">
          <mxGeometry x="-0.4642" y="1" relative="1" as="geometry">
            <mxPoint x="-19" y="9" as="offset" />
          </mxGeometry>
        </mxCell>
        <mxCell id="9rebO3kFmRryqbS-nXFS-160" value="n &amp;gt; 0" style="rhombus;whiteSpace=wrap;html=1;" parent="1" vertex="1">
          <mxGeometry x="830" y="1570" width="84" height="80" as="geometry" />
        </mxCell>
        <mxCell id="m4Abpg3jTj8B2hDXwQZv-1" value="a = a + 2" style="rounded=0;whiteSpace=wrap;html=1;" parent="1" vertex="1">
          <mxGeometry x="812" y="1900" width="120" height="60" as="geometry" />
        </mxCell>
      </root>
    </mxGraphModel>
  </diagram>
  <diagram id="8QZz7ibTE_bo0sD-Hxe4" name="Page-2">
    <mxGraphModel dx="1909" dy="1231" grid="1" gridSize="10" guides="1" tooltips="1" connect="1" arrows="1" fold="1" page="1" pageScale="1" pageWidth="827" pageHeight="1169" math="0" shadow="0">
      <root>
        <mxCell id="0" />
        <mxCell id="1" parent="0" />
        <mxCell id="DBvBtlzldcDbfuohS7ir-1" style="edgeStyle=orthogonalEdgeStyle;rounded=0;orthogonalLoop=1;jettySize=auto;html=1;" edge="1" parent="1" target="DBvBtlzldcDbfuohS7ir-4">
          <mxGeometry relative="1" as="geometry">
            <mxPoint x="872" y="150" as="sourcePoint" />
          </mxGeometry>
        </mxCell>
        <mxCell id="DBvBtlzldcDbfuohS7ir-2" value="" style="verticalLabelPosition=bottom;verticalAlign=top;html=1;shape=hexagon;perimeter=hexagonPerimeter2;arcSize=6;size=0.27;" vertex="1" parent="1">
          <mxGeometry x="822" y="180" width="100" height="60" as="geometry" />
        </mxCell>
        <mxCell id="DBvBtlzldcDbfuohS7ir-3" style="edgeStyle=orthogonalEdgeStyle;rounded=0;orthogonalLoop=1;jettySize=auto;html=1;entryX=0.5;entryY=0;entryDx=0;entryDy=0;" edge="1" parent="1" source="DBvBtlzldcDbfuohS7ir-4" target="DBvBtlzldcDbfuohS7ir-6">
          <mxGeometry relative="1" as="geometry" />
        </mxCell>
        <mxCell id="DBvBtlzldcDbfuohS7ir-4" value="&lt;div style=&quot;font-size: 10px;&quot;&gt;&lt;font style=&quot;font-size: 10px;&quot;&gt;temp = 0&lt;/font&gt;&lt;/div&gt;&lt;div style=&quot;font-size: 10px;&quot;&gt;&lt;font style=&quot;font-size: 10px;&quot;&gt;a = 0&lt;/font&gt;&lt;/div&gt;&lt;div style=&quot;font-size: 10px;&quot;&gt;&lt;font style=&quot;font-size: 10px;&quot;&gt;b = 0&lt;/font&gt;&lt;/div&gt;" style="text;html=1;align=center;verticalAlign=middle;resizable=0;points=[];autosize=1;strokeColor=none;fillColor=none;" vertex="1" parent="1">
          <mxGeometry x="842" y="185" width="60" height="50" as="geometry" />
        </mxCell>
        <mxCell id="DBvBtlzldcDbfuohS7ir-5" style="edgeStyle=orthogonalEdgeStyle;rounded=0;orthogonalLoop=1;jettySize=auto;html=1;entryX=0.5;entryY=0;entryDx=0;entryDy=0;entryPerimeter=0;" edge="1" parent="1" source="DBvBtlzldcDbfuohS7ir-6" target="DBvBtlzldcDbfuohS7ir-11">
          <mxGeometry relative="1" as="geometry" />
        </mxCell>
        <mxCell id="DBvBtlzldcDbfuohS7ir-6" value="input(a, b)" style="shape=parallelogram;perimeter=parallelogramPerimeter;whiteSpace=wrap;html=1;fixedSize=1;" vertex="1" parent="1">
          <mxGeometry x="812" y="280" width="120" height="60" as="geometry" />
        </mxCell>
        <mxCell id="DBvBtlzldcDbfuohS7ir-7" style="edgeStyle=orthogonalEdgeStyle;rounded=0;orthogonalLoop=1;jettySize=auto;html=1;entryX=0.5;entryY=0;entryDx=0;entryDy=0;" edge="1" parent="1" source="DBvBtlzldcDbfuohS7ir-11" target="DBvBtlzldcDbfuohS7ir-13">
          <mxGeometry relative="1" as="geometry" />
        </mxCell>
        <mxCell id="DBvBtlzldcDbfuohS7ir-8" value="Yes" style="edgeLabel;html=1;align=center;verticalAlign=middle;resizable=0;points=[];" vertex="1" connectable="0" parent="DBvBtlzldcDbfuohS7ir-7">
          <mxGeometry x="-0.0643" relative="1" as="geometry">
            <mxPoint x="18" as="offset" />
          </mxGeometry>
        </mxCell>
        <mxCell id="DBvBtlzldcDbfuohS7ir-9" style="edgeStyle=orthogonalEdgeStyle;rounded=0;orthogonalLoop=1;jettySize=auto;html=1;entryX=1;entryY=0.5;entryDx=0;entryDy=0;" edge="1" parent="1" source="DBvBtlzldcDbfuohS7ir-11" target="DBvBtlzldcDbfuohS7ir-42">
          <mxGeometry relative="1" as="geometry">
            <mxPoint x="1090" y="890" as="targetPoint" />
            <Array as="points">
              <mxPoint x="1090" y="430" />
              <mxPoint x="1090" y="880" />
            </Array>
          </mxGeometry>
        </mxCell>
        <mxCell id="DBvBtlzldcDbfuohS7ir-10" value="No" style="edgeLabel;html=1;align=center;verticalAlign=middle;resizable=0;points=[];" vertex="1" connectable="0" parent="DBvBtlzldcDbfuohS7ir-9">
          <mxGeometry x="-0.8089" relative="1" as="geometry">
            <mxPoint x="-8" y="-10" as="offset" />
          </mxGeometry>
        </mxCell>
        <mxCell id="DBvBtlzldcDbfuohS7ir-11" value="a &amp;gt; b" style="strokeWidth=2;html=1;shape=mxgraph.flowchart.decision;whiteSpace=wrap;" vertex="1" parent="1">
          <mxGeometry x="822" y="380" width="100" height="100" as="geometry" />
        </mxCell>
        <mxCell id="DBvBtlzldcDbfuohS7ir-12" style="edgeStyle=orthogonalEdgeStyle;rounded=0;orthogonalLoop=1;jettySize=auto;html=1;entryX=0.5;entryY=0;entryDx=0;entryDy=0;" edge="1" parent="1" source="DBvBtlzldcDbfuohS7ir-13" target="DBvBtlzldcDbfuohS7ir-15">
          <mxGeometry relative="1" as="geometry" />
        </mxCell>
        <mxCell id="DBvBtlzldcDbfuohS7ir-13" value="a = a - b" style="rounded=0;whiteSpace=wrap;html=1;" vertex="1" parent="1">
          <mxGeometry x="812" y="550" width="120" height="60" as="geometry" />
        </mxCell>
        <mxCell id="DBvBtlzldcDbfuohS7ir-14" style="edgeStyle=orthogonalEdgeStyle;rounded=0;orthogonalLoop=1;jettySize=auto;html=1;entryX=0.5;entryY=0;entryDx=0;entryDy=0;" edge="1" parent="1" source="DBvBtlzldcDbfuohS7ir-15" target="DBvBtlzldcDbfuohS7ir-17">
          <mxGeometry relative="1" as="geometry" />
        </mxCell>
        <mxCell id="DBvBtlzldcDbfuohS7ir-15" value="b = a + b" style="rounded=0;whiteSpace=wrap;html=1;" vertex="1" parent="1">
          <mxGeometry x="812" y="645" width="120" height="60" as="geometry" />
        </mxCell>
        <mxCell id="DBvBtlzldcDbfuohS7ir-16" style="edgeStyle=orthogonalEdgeStyle;rounded=0;orthogonalLoop=1;jettySize=auto;html=1;entryX=0.5;entryY=0;entryDx=0;entryDy=0;" edge="1" parent="1" source="DBvBtlzldcDbfuohS7ir-17" target="DBvBtlzldcDbfuohS7ir-42">
          <mxGeometry relative="1" as="geometry">
            <mxPoint x="872" y="860" as="targetPoint" />
          </mxGeometry>
        </mxCell>
        <mxCell id="DBvBtlzldcDbfuohS7ir-17" value="a = b - a" style="rounded=0;whiteSpace=wrap;html=1;" vertex="1" parent="1">
          <mxGeometry x="812" y="750" width="120" height="60" as="geometry" />
        </mxCell>
        <mxCell id="DBvBtlzldcDbfuohS7ir-18" style="edgeStyle=orthogonalEdgeStyle;rounded=0;orthogonalLoop=1;jettySize=auto;html=1;entryX=0.5;entryY=0;entryDx=0;entryDy=0;fontFamily=Courier New;fontSize=10;" edge="1" parent="1" source="DBvBtlzldcDbfuohS7ir-22" target="DBvBtlzldcDbfuohS7ir-26">
          <mxGeometry relative="1" as="geometry" />
        </mxCell>
        <mxCell id="DBvBtlzldcDbfuohS7ir-19" value="&lt;font style=&quot;font-size: 10px;&quot; face=&quot;Courier New&quot;&gt;Yes&lt;/font&gt;" style="edgeLabel;html=1;align=center;verticalAlign=middle;resizable=0;points=[];" vertex="1" connectable="0" parent="DBvBtlzldcDbfuohS7ir-18">
          <mxGeometry x="-0.3698" relative="1" as="geometry">
            <mxPoint x="-10" y="-10" as="offset" />
          </mxGeometry>
        </mxCell>
        <mxCell id="DBvBtlzldcDbfuohS7ir-20" style="edgeStyle=orthogonalEdgeStyle;rounded=0;orthogonalLoop=1;jettySize=auto;html=1;entryX=0.5;entryY=0;entryDx=0;entryDy=0;fontFamily=Courier New;fontSize=10;" edge="1" parent="1" source="DBvBtlzldcDbfuohS7ir-22" target="DBvBtlzldcDbfuohS7ir-38">
          <mxGeometry relative="1" as="geometry">
            <mxPoint x="1082" y="1040" as="targetPoint" />
          </mxGeometry>
        </mxCell>
        <mxCell id="DBvBtlzldcDbfuohS7ir-21" value="&lt;font style=&quot;font-size: 10px;&quot; face=&quot;Courier New&quot;&gt;No&lt;/font&gt;" style="edgeLabel;html=1;align=center;verticalAlign=middle;resizable=0;points=[];" vertex="1" connectable="0" parent="DBvBtlzldcDbfuohS7ir-20">
          <mxGeometry x="-0.3358" y="-1" relative="1" as="geometry">
            <mxPoint y="-11" as="offset" />
          </mxGeometry>
        </mxCell>
        <mxCell id="DBvBtlzldcDbfuohS7ir-22" value="temp &amp;lt; 0" style="rhombus;whiteSpace=wrap;html=1;shadow=0;fontFamily=Courier New;fontSize=10;align=center;strokeWidth=1;spacing=6;spacingTop=-4;" vertex="1" parent="1">
          <mxGeometry x="822" y="950" width="100" height="80" as="geometry" />
        </mxCell>
        <mxCell id="DBvBtlzldcDbfuohS7ir-23" value="Yes" style="edgeStyle=orthogonalEdgeStyle;html=1;jettySize=auto;orthogonalLoop=1;fontSize=10;endArrow=classic;endFill=1;endSize=8;strokeWidth=1;shadow=0;labelBackgroundColor=none;fontFamily=Courier New;labelBorderColor=none;rounded=0;entryX=0.5;entryY=0;entryDx=0;entryDy=0;" edge="1" parent="1" source="DBvBtlzldcDbfuohS7ir-26" target="DBvBtlzldcDbfuohS7ir-31">
          <mxGeometry x="-0.2343" y="10" relative="1" as="geometry">
            <mxPoint as="offset" />
            <mxPoint x="782" y="1100" as="targetPoint" />
          </mxGeometry>
        </mxCell>
        <mxCell id="DBvBtlzldcDbfuohS7ir-24" style="edgeStyle=orthogonalEdgeStyle;rounded=0;orthogonalLoop=1;jettySize=auto;html=1;entryX=1;entryY=0.5;entryDx=0;entryDy=0;fontFamily=Courier New;fontSize=10;" edge="1" parent="1" source="DBvBtlzldcDbfuohS7ir-26" target="DBvBtlzldcDbfuohS7ir-28">
          <mxGeometry relative="1" as="geometry" />
        </mxCell>
        <mxCell id="DBvBtlzldcDbfuohS7ir-25" value="&lt;div style=&quot;font-size: 10px;&quot;&gt;No&lt;/div&gt;" style="edgeLabel;html=1;align=center;verticalAlign=middle;resizable=0;points=[];fontSize=10;fontFamily=Courier New;" vertex="1" connectable="0" parent="DBvBtlzldcDbfuohS7ir-24">
          <mxGeometry x="-0.28" relative="1" as="geometry">
            <mxPoint y="-10" as="offset" />
          </mxGeometry>
        </mxCell>
        <mxCell id="DBvBtlzldcDbfuohS7ir-26" value="temp &amp;gt; -2" style="rhombus;whiteSpace=wrap;html=1;shadow=0;fontFamily=Courier New;fontSize=10;align=center;strokeWidth=1;spacing=6;spacingTop=-4;" vertex="1" parent="1">
          <mxGeometry x="612" y="1060" width="100" height="80" as="geometry" />
        </mxCell>
        <mxCell id="DBvBtlzldcDbfuohS7ir-27" style="edgeStyle=orthogonalEdgeStyle;rounded=0;orthogonalLoop=1;jettySize=auto;html=1;entryX=0.5;entryY=1;entryDx=0;entryDy=0;fontFamily=Courier New;fontSize=10;" edge="1" parent="1" source="DBvBtlzldcDbfuohS7ir-28" target="DBvBtlzldcDbfuohS7ir-26">
          <mxGeometry relative="1" as="geometry">
            <mxPoint x="501.9999999999999" y="1280" as="targetPoint" />
            <Array as="points">
              <mxPoint x="502" y="1200" />
              <mxPoint x="662" y="1200" />
            </Array>
          </mxGeometry>
        </mxCell>
        <mxCell id="DBvBtlzldcDbfuohS7ir-28" value="temp = temp + 2" style="rounded=1;whiteSpace=wrap;html=1;fontSize=10;glass=0;strokeWidth=1;shadow=0;fontFamily=Courier New;arcSize=0;" vertex="1" parent="1">
          <mxGeometry x="439" y="1080" width="123" height="40" as="geometry" />
        </mxCell>
        <mxCell id="DBvBtlzldcDbfuohS7ir-29" style="edgeStyle=orthogonalEdgeStyle;rounded=0;orthogonalLoop=1;jettySize=auto;html=1;entryX=0.5;entryY=0;entryDx=0;entryDy=0;fontFamily=Courier New;fontSize=10;" edge="1" parent="1" source="DBvBtlzldcDbfuohS7ir-31" target="DBvBtlzldcDbfuohS7ir-46">
          <mxGeometry relative="1" as="geometry">
            <mxPoint x="995.5" y="1260" as="targetPoint" />
          </mxGeometry>
        </mxCell>
        <mxCell id="DBvBtlzldcDbfuohS7ir-30" value="&lt;font style=&quot;font-size: 10px;&quot;&gt;Yes&lt;/font&gt;" style="edgeLabel;html=1;align=center;verticalAlign=middle;resizable=0;points=[];fontFamily=Courier New;fontSize=10;" vertex="1" connectable="0" parent="DBvBtlzldcDbfuohS7ir-29">
          <mxGeometry x="0.0336" y="-1" relative="1" as="geometry">
            <mxPoint x="-35" y="-21" as="offset" />
          </mxGeometry>
        </mxCell>
        <mxCell id="DBvBtlzldcDbfuohS7ir-31" value="temp = 0" style="rhombus;whiteSpace=wrap;html=1;shadow=0;fontFamily=Courier New;fontSize=10;align=center;strokeWidth=1;spacing=6;spacingTop=-4;" vertex="1" parent="1">
          <mxGeometry x="822" y="1130" width="100" height="80" as="geometry" />
        </mxCell>
        <mxCell id="DBvBtlzldcDbfuohS7ir-32" style="edgeStyle=orthogonalEdgeStyle;rounded=0;orthogonalLoop=1;jettySize=auto;html=1;entryX=0.5;entryY=0;entryDx=0;entryDy=0;exitX=0;exitY=0.5;exitDx=0;exitDy=0;fontFamily=Courier New;fontSize=10;" edge="1" parent="1" source="DBvBtlzldcDbfuohS7ir-31" target="DBvBtlzldcDbfuohS7ir-44">
          <mxGeometry relative="1" as="geometry">
            <mxPoint x="669" y="1170" as="sourcePoint" />
            <mxPoint x="744.04" y="1260.2799999999997" as="targetPoint" />
          </mxGeometry>
        </mxCell>
        <mxCell id="DBvBtlzldcDbfuohS7ir-33" value="No" style="edgeLabel;html=1;align=center;verticalAlign=middle;resizable=0;points=[];fontFamily=Courier New;fontSize=10;" vertex="1" connectable="0" parent="DBvBtlzldcDbfuohS7ir-32">
          <mxGeometry x="0.0336" y="-1" relative="1" as="geometry">
            <mxPoint x="46" y="-21" as="offset" />
          </mxGeometry>
        </mxCell>
        <mxCell id="DBvBtlzldcDbfuohS7ir-34" style="edgeStyle=orthogonalEdgeStyle;rounded=0;orthogonalLoop=1;jettySize=auto;html=1;entryX=0.5;entryY=0;entryDx=0;entryDy=0;" edge="1" parent="1" source="DBvBtlzldcDbfuohS7ir-38" target="DBvBtlzldcDbfuohS7ir-31">
          <mxGeometry relative="1" as="geometry" />
        </mxCell>
        <mxCell id="DBvBtlzldcDbfuohS7ir-35" value="&lt;font face=&quot;Courier New&quot; style=&quot;font-size: 10px;&quot;&gt;Yes&lt;/font&gt;" style="edgeLabel;html=1;align=center;verticalAlign=middle;resizable=0;points=[];" vertex="1" connectable="0" parent="DBvBtlzldcDbfuohS7ir-34">
          <mxGeometry x="-0.4892" y="1" relative="1" as="geometry">
            <mxPoint x="-17" y="-11" as="offset" />
          </mxGeometry>
        </mxCell>
        <mxCell id="DBvBtlzldcDbfuohS7ir-36" style="edgeStyle=orthogonalEdgeStyle;rounded=0;orthogonalLoop=1;jettySize=auto;html=1;entryX=0;entryY=0.5;entryDx=0;entryDy=0;" edge="1" parent="1" source="DBvBtlzldcDbfuohS7ir-38" target="DBvBtlzldcDbfuohS7ir-40">
          <mxGeometry relative="1" as="geometry" />
        </mxCell>
        <mxCell id="DBvBtlzldcDbfuohS7ir-37" value="&lt;font style=&quot;font-size: 10px;&quot; face=&quot;Courier New&quot;&gt;No&lt;/font&gt;" style="edgeLabel;html=1;align=center;verticalAlign=middle;resizable=0;points=[];" vertex="1" connectable="0" parent="DBvBtlzldcDbfuohS7ir-36">
          <mxGeometry x="-0.26" y="-1" relative="1" as="geometry">
            <mxPoint y="-11" as="offset" />
          </mxGeometry>
        </mxCell>
        <mxCell id="DBvBtlzldcDbfuohS7ir-38" value="temp &amp;lt; 2" style="rhombus;whiteSpace=wrap;html=1;shadow=0;fontFamily=Courier New;fontSize=10;align=center;strokeWidth=1;spacing=6;spacingTop=-4;" vertex="1" parent="1">
          <mxGeometry x="1009" y="1060" width="100" height="80" as="geometry" />
        </mxCell>
        <mxCell id="DBvBtlzldcDbfuohS7ir-39" style="edgeStyle=orthogonalEdgeStyle;rounded=0;orthogonalLoop=1;jettySize=auto;html=1;entryX=0.5;entryY=1;entryDx=0;entryDy=0;" edge="1" parent="1" source="DBvBtlzldcDbfuohS7ir-40" target="DBvBtlzldcDbfuohS7ir-38">
          <mxGeometry relative="1" as="geometry">
            <Array as="points">
              <mxPoint x="1209" y="1200" />
              <mxPoint x="1059" y="1200" />
            </Array>
          </mxGeometry>
        </mxCell>
        <mxCell id="DBvBtlzldcDbfuohS7ir-40" value="temp = temp - 2" style="rounded=1;whiteSpace=wrap;html=1;fontSize=10;glass=0;strokeWidth=1;shadow=0;fontFamily=Courier New;arcSize=0;" vertex="1" parent="1">
          <mxGeometry x="1149" y="1080" width="130" height="40" as="geometry" />
        </mxCell>
        <mxCell id="DBvBtlzldcDbfuohS7ir-41" value="" style="edgeStyle=orthogonalEdgeStyle;rounded=0;orthogonalLoop=1;jettySize=auto;html=1;" edge="1" parent="1" source="DBvBtlzldcDbfuohS7ir-42" target="DBvBtlzldcDbfuohS7ir-22">
          <mxGeometry relative="1" as="geometry" />
        </mxCell>
        <mxCell id="DBvBtlzldcDbfuohS7ir-42" value="temp = a" style="rounded=0;whiteSpace=wrap;html=1;" vertex="1" parent="1">
          <mxGeometry x="812" y="850" width="120" height="60" as="geometry" />
        </mxCell>
        <mxCell id="DBvBtlzldcDbfuohS7ir-43" style="edgeStyle=orthogonalEdgeStyle;rounded=0;orthogonalLoop=1;jettySize=auto;html=1;entryX=0.5;entryY=0;entryDx=0;entryDy=0;" edge="1" parent="1" source="DBvBtlzldcDbfuohS7ir-44" target="DBvBtlzldcDbfuohS7ir-51">
          <mxGeometry relative="1" as="geometry">
            <Array as="points">
              <mxPoint x="750" y="1390" />
              <mxPoint x="872" y="1390" />
            </Array>
            <mxPoint x="812" y="1389.9999999999998" as="targetPoint" />
          </mxGeometry>
        </mxCell>
        <mxCell id="DBvBtlzldcDbfuohS7ir-44" value="a = a + 2" style="rounded=0;whiteSpace=wrap;html=1;" vertex="1" parent="1">
          <mxGeometry x="690" y="1260" width="120" height="60" as="geometry" />
        </mxCell>
        <mxCell id="DBvBtlzldcDbfuohS7ir-45" style="edgeStyle=orthogonalEdgeStyle;rounded=0;orthogonalLoop=1;jettySize=auto;html=1;entryX=0.5;entryY=0;entryDx=0;entryDy=0;" edge="1" parent="1" source="DBvBtlzldcDbfuohS7ir-46" target="DBvBtlzldcDbfuohS7ir-51">
          <mxGeometry relative="1" as="geometry">
            <mxPoint x="931.9999999999998" y="1389.9999999999998" as="targetPoint" />
            <Array as="points">
              <mxPoint x="992" y="1390" />
              <mxPoint x="872" y="1390" />
            </Array>
          </mxGeometry>
        </mxCell>
        <mxCell id="DBvBtlzldcDbfuohS7ir-46" value="a = a + 1" style="rounded=0;whiteSpace=wrap;html=1;" vertex="1" parent="1">
          <mxGeometry x="932" y="1260" width="120" height="60" as="geometry" />
        </mxCell>
        <mxCell id="DBvBtlzldcDbfuohS7ir-47" value="" style="edgeStyle=orthogonalEdgeStyle;rounded=0;orthogonalLoop=1;jettySize=auto;html=1;entryX=0.5;entryY=0;entryDx=0;entryDy=0;" edge="1" parent="1" source="DBvBtlzldcDbfuohS7ir-51">
          <mxGeometry relative="1" as="geometry">
            <mxPoint x="872" y="1570" as="targetPoint" />
          </mxGeometry>
        </mxCell>
        <mxCell id="DBvBtlzldcDbfuohS7ir-48" value="Yes" style="edgeLabel;html=1;align=center;verticalAlign=middle;resizable=0;points=[];" vertex="1" connectable="0" parent="DBvBtlzldcDbfuohS7ir-47">
          <mxGeometry x="0.0269" y="2" relative="1" as="geometry">
            <mxPoint x="16" y="-2" as="offset" />
          </mxGeometry>
        </mxCell>
        <mxCell id="DBvBtlzldcDbfuohS7ir-49" style="edgeStyle=orthogonalEdgeStyle;rounded=0;orthogonalLoop=1;jettySize=auto;html=1;entryX=0.5;entryY=0;entryDx=0;entryDy=0;entryPerimeter=0;" edge="1" parent="1" source="DBvBtlzldcDbfuohS7ir-51" target="DBvBtlzldcDbfuohS7ir-57">
          <mxGeometry relative="1" as="geometry">
            <Array as="points">
              <mxPoint x="680" y="1480" />
            </Array>
          </mxGeometry>
        </mxCell>
        <mxCell id="DBvBtlzldcDbfuohS7ir-50" value="No" style="edgeLabel;html=1;align=center;verticalAlign=middle;resizable=0;points=[];" vertex="1" connectable="0" parent="DBvBtlzldcDbfuohS7ir-49">
          <mxGeometry x="-0.0753" y="-1" relative="1" as="geometry">
            <mxPoint x="13" y="-9" as="offset" />
          </mxGeometry>
        </mxCell>
        <mxCell id="DBvBtlzldcDbfuohS7ir-51" value="a &amp;lt; b" style="rhombus;whiteSpace=wrap;html=1;" vertex="1" parent="1">
          <mxGeometry x="830" y="1440" width="84" height="80" as="geometry" />
        </mxCell>
        <mxCell id="DBvBtlzldcDbfuohS7ir-53" value="cetak(a)" style="shape=parallelogram;perimeter=parallelogramPerimeter;whiteSpace=wrap;html=1;fixedSize=1;" vertex="1" parent="1">
          <mxGeometry x="812" y="1570" width="120" height="60" as="geometry" />
        </mxCell>
        <mxCell id="DBvBtlzldcDbfuohS7ir-54" style="edgeStyle=orthogonalEdgeStyle;rounded=0;orthogonalLoop=1;jettySize=auto;html=1;entryX=1;entryY=0.5;entryDx=0;entryDy=0;exitX=1;exitY=0.5;exitDx=0;exitDy=0;" edge="1" parent="1" source="DBvBtlzldcDbfuohS7ir-64" target="DBvBtlzldcDbfuohS7ir-51">
          <mxGeometry relative="1" as="geometry">
            <Array as="points">
              <mxPoint x="990" y="1730" />
              <mxPoint x="990" y="1480" />
            </Array>
          </mxGeometry>
        </mxCell>
        <mxCell id="DBvBtlzldcDbfuohS7ir-55" style="edgeStyle=orthogonalEdgeStyle;rounded=0;orthogonalLoop=1;jettySize=auto;html=1;entryX=0.5;entryY=0;entryDx=0;entryDy=0;exitX=0.5;exitY=1;exitDx=0;exitDy=0;" edge="1" parent="1" source="DBvBtlzldcDbfuohS7ir-53" target="DBvBtlzldcDbfuohS7ir-64">
          <mxGeometry relative="1" as="geometry">
            <mxPoint x="872" y="1860" as="sourcePoint" />
          </mxGeometry>
        </mxCell>
        <mxCell id="DBvBtlzldcDbfuohS7ir-57" value="End" style="strokeWidth=2;html=1;shape=mxgraph.flowchart.terminator;whiteSpace=wrap;" vertex="1" parent="1">
          <mxGeometry x="630" y="1510" width="100" height="60" as="geometry" />
        </mxCell>
        <mxCell id="DBvBtlzldcDbfuohS7ir-58" value="Begin" style="strokeWidth=2;html=1;shape=mxgraph.flowchart.terminator;whiteSpace=wrap;" vertex="1" parent="1">
          <mxGeometry x="822" y="90" width="100" height="60" as="geometry" />
        </mxCell>
        <mxCell id="DBvBtlzldcDbfuohS7ir-64" value="a = a + 2" style="rounded=0;whiteSpace=wrap;html=1;" vertex="1" parent="1">
          <mxGeometry x="812" y="1700" width="120" height="60" as="geometry" />
        </mxCell>
      </root>
    </mxGraphModel>
  </diagram>
</mxfile>
